<?xml version="1.0" encoding="UTF-8" ?>
<!DOCTYPE svg PUBLIC "-//W3C//DTD SVG 1.1//EN" "http://www.w3.org/Graphics/SVG/1.1/DTD/svg11.dtd">
<svg width="105pt" height="105pt" viewBox="0 0 105 105" version="1.1" xmlns="http://www.w3.org/2000/svg">
<g id="#222222ff">
<path fill="#222222" opacity="1.00" d=" M 0.00 0.00 L 105.00 0.00 L 105.00 105.00 L 0.00 105.00 L 0.00 0.00 M 16.00 29.75 C 16.00 40.42 16.00 51.09 16.00 61.75 C 18.58 61.75 21.17 61.75 23.75 61.75 C 23.92 55.23 23.60 48.73 23.38 42.23 C 24.47 43.14 24.85 44.55 25.31 45.83 C 27.08 51.16 28.98 56.45 30.81 61.76 C 33.08 61.75 35.36 61.74 37.63 61.75 C 39.93 55.18 42.15 48.57 44.51 42.02 C 44.49 48.60 44.50 55.18 44.50 61.76 C 47.17 61.75 49.83 61.75 52.50 61.75 C 52.50 51.09 52.51 40.42 52.50 29.75 C 49.28 29.75 46.07 29.75 42.85 29.75 C 39.99 37.19 37.19 44.65 34.30 52.08 C 31.43 44.63 28.45 37.24 25.63 29.77 C 22.42 29.75 19.21 29.74 16.00 29.75 M 66.25 29.50 C 66.25 40.25 66.25 51.00 66.25 61.75 C 68.83 61.75 71.41 61.75 74.00 61.76 C 74.45 57.45 72.94 52.68 74.99 48.71 C 78.00 52.77 80.22 57.33 82.73 61.71 C 85.64 61.76 88.56 61.76 91.48 61.75 C 88.96 57.57 86.47 53.37 83.88 49.23 C 86.34 48.13 89.08 46.94 90.28 44.33 C 93.16 39.18 90.47 31.87 84.69 30.23 C 78.66 28.81 72.38 29.78 66.25 29.50 M 10.00 67.10 C 10.00 67.58 10.00 68.54 10.00 69.03 C 37.01 69.05 64.02 68.99 91.03 69.06 C 93.19 68.96 95.65 69.50 97.43 67.88 C 94.76 66.69 91.81 67.13 88.98 67.08 C 62.66 67.11 36.33 67.08 10.00 67.10 Z" />
<path fill="#222222" opacity="1.00" d=" M 74.00 35.96 C 77.02 36.21 80.89 35.21 83.04 37.98 C 83.79 39.89 83.59 42.45 81.75 43.67 C 79.27 44.56 76.58 44.19 74.00 44.26 C 74.00 41.50 74.00 38.73 74.00 35.96 Z" />
</g>
<g id="#ebebebff">
<path fill="#ebebeb" opacity="1.00" d=" M 16.00 29.75 C 19.21 29.74 22.42 29.75 25.63 29.77 C 28.45 37.24 31.43 44.63 34.30 52.08 C 37.19 44.65 39.99 37.19 42.85 29.75 C 46.07 29.75 49.28 29.75 52.50 29.75 C 52.51 40.42 52.50 51.09 52.50 61.75 C 49.83 61.75 47.17 61.75 44.50 61.76 C 44.50 55.18 44.49 48.60 44.51 42.02 C 42.15 48.57 39.93 55.18 37.63 61.75 C 35.36 61.74 33.08 61.75 30.81 61.76 C 28.98 56.45 27.08 51.16 25.31 45.83 C 24.85 44.55 24.47 43.14 23.38 42.23 C 23.60 48.73 23.92 55.23 23.75 61.75 C 21.17 61.75 18.58 61.75 16.00 61.75 C 16.00 51.09 16.00 40.42 16.00 29.75 Z" />
<path fill="#ebebeb" opacity="1.00" d=" M 66.25 29.50 C 72.38 29.78 78.66 28.81 84.69 30.23 C 90.47 31.87 93.16 39.18 90.28 44.33 C 89.08 46.94 86.34 48.13 83.88 49.23 C 86.47 53.37 88.96 57.57 91.48 61.75 C 88.56 61.76 85.64 61.76 82.73 61.71 C 80.22 57.33 78.00 52.77 74.99 48.71 C 72.94 52.68 74.45 57.45 74.00 61.76 C 71.41 61.75 68.83 61.75 66.25 61.75 C 66.25 51.00 66.25 40.25 66.25 29.50 M 74.00 35.96 C 74.00 38.73 74.00 41.50 74.00 44.26 C 76.58 44.19 79.27 44.56 81.75 43.67 C 83.59 42.45 83.79 39.89 83.04 37.98 C 80.89 35.21 77.02 36.21 74.00 35.96 Z" />
</g>
<g id="#edad45ff">
<path fill="#edad45" opacity="1.00" d=" M 10.00 67.10 C 36.33 67.08 62.66 67.11 88.98 67.08 C 91.81 67.13 94.76 66.69 97.43 67.88 C 95.65 69.50 93.19 68.96 91.03 69.06 C 64.02 68.99 37.01 69.05 10.00 69.03 C 10.00 68.54 10.00 67.58 10.00 67.10 Z" />
</g>
</svg>
