<?xml version="1.0" encoding="UTF-8" ?>
<!DOCTYPE svg PUBLIC "-//W3C//DTD SVG 1.1//EN" "http://www.w3.org/Graphics/SVG/1.1/DTD/svg11.dtd">
<svg width="1280pt" height="640pt" viewBox="0 0 1280 640" version="1.1" xmlns="http://www.w3.org/2000/svg">
<g id="#ffffffff">
</g>
<g id="#00b0f0ff">
<path fill="#00b0f0" opacity="1.00" d=" M 509.02 99.87 C 553.43 96.10 599.12 107.73 636.01 132.85 C 654.79 145.52 671.31 161.55 684.44 180.02 C 726.50 171.25 771.60 177.17 809.67 197.21 C 849.16 217.70 880.82 253.98 892.97 297.08 C 926.85 295.84 961.21 305.56 988.88 325.27 C 1011.72 341.49 1030.03 364.42 1039.48 390.90 C 1050.00 419.81 1049.55 452.53 1038.25 481.14 C 1029.48 503.64 1014.39 523.51 995.50 538.48 C 972.32 557.01 943.55 568.28 914.03 571.00 C 900.07 572.39 886.02 571.50 872.02 571.75 C 699.01 571.75 526.00 571.75 352.99 571.75 C 316.33 572.05 279.46 559.34 251.54 535.41 C 223.86 512.05 205.38 477.38 203.89 440.95 C 202.08 410.95 211.73 380.67 229.68 356.66 C 253.95 323.80 292.61 302.82 332.98 298.08 C 329.40 255.44 342.27 211.87 367.73 177.55 C 400.49 132.66 453.71 103.88 509.02 99.87 M 616.64 267.44 C 583.06 307.46 549.36 347.38 515.59 387.23 C 532.45 387.09 549.32 387.26 566.18 387.14 C 566.10 426.24 566.30 465.33 566.08 504.42 C 599.89 504.54 633.69 504.45 667.50 504.47 C 667.39 465.37 667.51 426.28 667.43 387.19 C 684.29 387.20 701.15 387.13 718.00 387.22 C 684.03 347.45 650.67 307.15 616.64 267.44 Z" />
</g>
</svg>
