<?xml version="1.0" encoding="UTF-8" ?>
<!DOCTYPE svg PUBLIC "-//W3C//DTD SVG 1.1//EN" "http://www.w3.org/Graphics/SVG/1.1/DTD/svg11.dtd">
<svg width="417pt" height="148pt" viewBox="0 0 417 148" version="1.1" xmlns="http://www.w3.org/2000/svg">
<g id="#222222ff">
<path fill="#222222" opacity="1.00" d=" M 0.00 0.00 L 417.00 0.00 L 417.00 148.00 L 0.00 148.00 L 0.00 0.00 M 166.42 39.54 C 163.86 40.61 163.36 44.64 165.74 46.17 C 168.39 48.39 173.64 46.79 173.46 42.97 C 173.47 39.51 169.11 38.13 166.42 39.54 M 60.00 43.75 C 60.00 54.42 60.00 65.08 60.00 75.75 C 62.58 75.75 65.17 75.75 67.75 75.75 C 67.77 69.09 67.71 62.43 67.78 55.76 C 70.19 62.37 72.50 69.01 74.72 75.68 C 77.02 75.73 79.33 75.75 81.63 75.76 C 83.94 69.27 86.01 62.70 88.51 56.28 C 88.50 62.77 88.49 69.26 88.50 75.75 C 91.17 75.75 93.83 75.75 96.50 75.75 C 96.50 65.08 96.51 54.42 96.50 43.75 C 93.28 43.75 90.07 43.75 86.85 43.75 C 84.01 51.16 81.18 58.57 78.37 65.99 C 75.30 58.64 72.51 51.16 69.59 43.75 C 66.40 43.75 63.20 43.75 60.00 43.75 M 222.25 75.75 C 224.83 75.75 227.41 75.75 229.99 75.76 C 230.45 71.45 228.93 66.67 231.01 62.72 C 234.04 66.81 236.21 71.45 238.86 75.79 C 241.73 75.75 244.61 75.75 247.48 75.74 C 244.95 71.57 242.47 67.37 239.88 63.24 C 242.31 62.11 245.07 60.97 246.26 58.37 C 249.16 53.23 246.50 45.90 240.72 44.25 C 234.71 42.79 228.44 43.83 222.32 43.45 C 222.16 54.22 222.29 64.98 222.25 75.75 M 103.77 50.24 C 104.19 57.10 102.63 64.35 105.00 70.93 C 107.76 77.98 118.50 77.45 121.86 71.16 C 121.80 72.69 121.75 74.22 121.71 75.75 C 124.31 75.75 126.90 75.75 129.50 75.75 C 129.50 67.25 129.50 58.75 129.50 50.25 C 126.92 50.25 124.33 50.25 121.75 50.25 C 121.54 55.56 122.28 60.98 121.22 66.22 C 120.21 70.77 112.57 70.69 111.80 66.04 C 111.13 60.81 111.67 55.51 111.51 50.25 C 108.93 50.25 106.35 50.25 103.77 50.24 M 140.38 51.40 C 136.38 53.28 135.09 59.50 138.55 62.48 C 141.78 65.29 146.44 64.93 150.13 66.81 C 152.12 68.19 150.38 70.20 148.90 71.03 C 146.53 70.64 144.31 69.69 143.47 67.24 C 141.03 67.24 138.58 67.25 136.14 67.27 C 137.05 70.44 138.77 73.73 142.09 74.89 C 146.41 76.52 151.92 76.84 155.75 73.86 C 159.14 71.39 159.03 65.54 155.57 63.19 C 152.35 60.81 148.07 61.00 144.58 59.23 C 142.67 58.18 143.90 55.02 146.03 55.47 C 148.31 55.11 149.70 57.02 150.78 58.70 C 153.17 58.75 155.56 58.76 157.96 58.74 C 157.09 56.52 156.24 54.16 154.35 52.59 C 150.47 49.54 144.74 49.27 140.38 51.40 M 165.01 50.24 C 165.00 58.75 164.99 67.25 165.01 75.76 C 167.59 75.75 170.17 75.75 172.75 75.75 C 172.75 67.25 172.75 58.75 172.75 50.25 C 170.17 50.25 167.59 50.25 165.01 50.24 M 185.58 51.49 C 176.71 55.81 177.02 70.95 186.09 74.89 C 190.82 76.89 196.93 76.42 200.78 72.82 C 202.77 71.02 203.61 68.43 204.54 66.01 C 201.83 65.99 199.11 65.99 196.40 66.02 C 195.35 68.07 193.55 69.92 191.02 69.33 C 186.45 68.16 186.16 61.75 188.37 58.40 C 190.65 55.36 195.39 56.78 196.44 60.21 C 199.13 60.26 201.83 60.26 204.53 60.24 C 203.73 58.19 203.18 55.93 201.65 54.27 C 197.83 49.73 190.74 48.88 185.58 51.49 M 261.43 50.58 C 252.68 52.61 249.82 64.33 254.86 71.13 C 258.97 76.63 267.42 77.48 273.12 74.11 C 280.54 69.56 280.75 57.21 273.59 52.34 C 270.08 49.93 265.47 49.50 261.43 50.58 M 292.51 50.70 C 283.93 53.03 281.40 64.80 286.63 71.38 C 290.69 76.61 298.75 77.37 304.33 74.30 C 311.72 70.15 312.38 58.38 306.03 53.02 C 302.34 49.93 297.03 49.36 292.51 50.70 M 324.40 54.46 C 324.44 53.41 324.50 51.31 324.54 50.26 C 321.94 50.25 319.34 50.25 316.75 50.25 C 316.75 58.75 316.75 67.25 316.76 75.76 C 319.34 75.75 321.92 75.75 324.51 75.75 C 324.70 70.55 324.00 65.28 324.99 60.15 C 325.91 55.82 333.23 55.65 334.17 60.04 C 334.93 65.22 334.30 70.52 334.49 75.74 C 337.07 75.75 339.65 75.75 342.23 75.76 C 342.43 70.66 341.84 65.51 342.60 60.45 C 343.29 55.90 350.85 55.54 351.92 60.03 C 352.64 65.23 352.07 70.51 352.25 75.75 C 354.83 75.75 357.41 75.75 359.99 75.76 C 359.82 69.80 360.41 63.78 359.65 57.85 C 359.06 53.63 355.32 50.28 351.08 50.08 C 347.06 49.48 343.43 51.88 341.15 54.99 C 337.83 48.70 328.11 48.40 324.40 54.46 M 238.02 94.52 C 236.65 93.22 234.81 91.86 232.82 92.66 C 228.78 93.72 228.47 100.15 232.06 101.95 C 233.99 102.76 236.57 102.48 237.61 100.42 C 237.87 101.01 238.38 102.21 238.63 102.81 C 239.96 98.26 239.10 93.34 239.03 88.66 C 237.56 90.28 238.09 92.55 238.02 94.52 M 260.14 90.47 C 261.17 90.56 263.22 90.75 264.25 90.85 C 264.28 94.84 264.12 98.83 264.42 102.81 C 266.80 99.43 264.92 94.72 265.50 90.82 C 266.52 90.75 268.55 90.62 269.57 90.55 C 266.69 89.17 263.11 89.50 260.14 90.47 M 359.53 99.34 C 359.87 95.86 359.88 92.33 359.44 88.86 C 357.70 91.88 358.04 96.25 359.53 99.34 M 179.17 102.67 C 180.62 102.04 181.15 100.56 181.81 99.27 C 183.60 99.25 185.40 99.25 187.19 99.26 C 187.84 100.53 188.27 102.08 189.78 102.60 C 188.42 98.44 186.89 94.32 185.19 90.29 C 184.89 90.18 184.30 89.95 184.00 89.84 C 182.16 94.02 180.65 98.34 179.17 102.67 M 289.50 89.77 C 289.49 93.94 289.49 98.10 289.50 102.26 C 291.93 102.14 294.56 102.73 296.80 101.48 C 294.79 101.27 292.77 101.23 290.75 101.21 C 290.75 99.63 290.75 98.06 290.76 96.49 C 292.41 96.51 294.07 96.52 295.73 96.52 C 295.74 96.26 295.76 95.75 295.76 95.49 C 294.09 95.49 292.42 95.50 290.75 95.51 C 290.75 93.94 290.75 92.37 290.75 90.81 C 292.80 90.74 294.94 90.99 296.85 90.05 C 294.41 89.77 291.95 89.77 289.50 89.77 M 174.40 92.45 C 173.92 94.09 174.48 94.62 176.08 94.03 C 176.57 92.40 176.01 91.87 174.40 92.45 M 195.53 92.61 C 191.17 93.50 190.99 100.85 195.14 102.17 C 197.12 102.98 198.97 101.44 200.78 100.87 C 200.37 102.46 200.71 104.95 198.74 105.63 C 196.37 106.84 194.52 104.46 192.70 103.34 C 193.15 107.94 200.80 108.35 201.63 103.81 C 201.75 99.77 202.25 95.59 201.10 91.66 C 200.94 92.34 200.60 93.71 200.43 94.39 C 199.08 93.24 197.41 91.99 195.53 92.61 M 208.05 102.08 C 210.73 103.10 213.92 101.56 214.56 98.68 C 212.75 99.64 211.23 101.82 208.94 101.21 C 207.13 101.24 206.87 99.04 206.12 97.87 C 209.03 97.90 211.95 97.84 214.86 97.54 C 214.42 94.73 212.29 91.94 209.16 92.50 C 204.41 92.86 203.66 100.62 208.05 102.08 M 217.91 91.87 C 218.15 95.46 216.56 99.75 218.76 102.87 C 219.14 100.01 218.61 96.99 219.67 94.25 C 221.31 93.18 223.87 93.10 224.84 95.11 C 225.36 97.66 225.21 100.28 225.52 102.86 C 226.67 100.36 226.42 97.48 226.04 94.83 C 225.15 91.97 221.15 91.82 219.36 93.91 C 218.99 93.40 218.27 92.38 217.91 91.87 M 245.76 92.69 C 241.71 93.77 241.53 100.18 245.08 101.98 C 247.00 102.73 249.48 102.52 250.50 100.47 C 250.90 101.06 251.69 102.24 252.09 102.83 C 252.35 99.13 252.31 95.43 252.08 91.74 C 251.66 93.13 251.02 93.81 250.17 93.79 C 249.11 92.55 247.27 92.15 245.76 92.69 M 271.61 93.08 C 271.22 96.64 270.67 102.14 275.47 102.71 C 276.24 102.33 277.79 101.56 278.56 101.17 C 278.92 101.56 279.63 102.35 279.99 102.74 C 279.68 99.08 280.90 95.04 279.02 91.69 C 278.71 94.69 278.73 97.71 278.46 100.72 C 277.58 100.88 275.82 101.21 274.94 101.38 C 271.19 99.90 273.36 95.00 272.55 91.93 C 272.32 92.22 271.84 92.79 271.61 93.08 M 301.48 93.54 C 300.98 93.40 299.98 93.11 299.49 92.97 C 299.98 96.15 298.32 100.14 300.57 102.77 C 301.02 99.33 299.52 94.32 303.98 93.04 C 304.64 93.56 305.95 94.61 306.61 95.13 C 307.12 97.68 305.92 100.74 307.83 102.87 C 307.93 100.07 308.41 97.12 307.54 94.40 C 306.47 92.06 303.27 92.05 301.48 93.54 M 311.44 94.99 C 311.41 98.56 316.74 96.91 317.54 100.00 C 315.71 103.29 313.06 100.12 310.97 99.04 C 311.83 101.18 313.99 102.97 316.40 102.24 C 318.51 102.01 319.36 98.61 317.21 97.77 C 315.41 96.63 311.34 96.95 312.93 93.79 C 315.27 92.58 316.93 94.63 318.42 96.10 C 318.64 92.14 312.09 90.95 311.44 94.99 M 324.52 92.68 C 320.41 93.76 320.22 100.54 324.10 102.07 C 325.92 102.99 327.81 101.65 329.56 101.22 C 329.92 101.59 330.64 102.35 331.00 102.72 C 330.71 99.16 331.75 95.31 330.29 91.94 C 330.13 92.60 329.79 93.93 329.63 94.60 C 328.46 93.04 326.45 91.91 324.52 92.68 M 333.78 91.79 C 334.55 95.43 336.33 98.73 337.70 102.16 C 337.04 103.84 336.42 105.54 335.97 107.29 C 336.28 107.07 336.91 106.63 337.22 106.41 C 339.29 102.03 341.07 97.48 342.64 92.90 C 342.50 92.67 342.21 92.20 342.06 91.96 C 340.50 94.66 339.58 97.66 338.47 100.55 C 336.94 97.62 336.29 94.10 333.78 91.79 M 348.60 92.65 C 345.36 93.32 344.17 97.55 345.77 100.20 C 347.66 103.66 353.95 102.89 354.53 98.82 C 355.75 95.28 352.20 91.44 348.60 92.65 M 174.92 105.85 C 176.55 102.67 175.56 98.89 175.59 95.47 C 173.91 98.63 174.79 102.43 174.92 105.85 M 60.01 97.09 C 60.01 97.57 59.99 98.54 59.99 99.03 C 87.34 99.06 114.68 98.98 142.03 99.06 C 143.86 98.94 146.09 99.45 147.39 97.71 C 145.95 97.33 144.48 97.11 143.00 97.07 C 115.34 97.12 87.67 97.08 60.01 97.09 M 357.60 101.00 C 357.01 102.71 359.94 103.51 360.50 101.89 C 361.05 100.17 358.20 99.50 357.60 101.00 Z" />
<path fill="#222222" opacity="1.00" d=" M 230.00 49.96 C 233.02 50.21 236.96 49.19 239.06 52.02 C 239.79 53.94 239.57 56.48 237.73 57.69 C 235.24 58.54 232.57 58.19 230.00 58.27 C 230.00 55.50 230.00 52.73 230.00 49.96 Z" />
<path fill="#222222" opacity="1.00" d=" M 263.33 57.33 C 266.61 55.51 270.79 58.30 270.75 61.94 C 271.56 65.45 269.02 69.88 265.02 69.23 C 259.46 68.68 258.74 59.71 263.33 57.33 Z" />
<path fill="#222222" opacity="1.00" d=" M 295.19 57.16 C 299.94 55.13 303.68 60.79 302.17 65.02 C 301.73 69.19 295.94 70.75 293.32 67.59 C 291.03 64.51 291.40 58.91 295.19 57.16 Z" />
<path fill="#222222" opacity="1.00" d=" M 182.02 98.25 C 182.82 96.03 183.63 93.81 184.53 91.62 C 185.36 93.83 186.15 96.04 186.96 98.26 C 185.72 98.26 183.25 98.25 182.02 98.25 Z" />
<path fill="#222222" opacity="1.00" d=" M 195.20 93.93 C 200.05 91.44 202.92 99.83 197.99 101.14 C 193.73 102.55 191.70 96.02 195.20 93.93 Z" />
<path fill="#222222" opacity="1.00" d=" M 206.17 97.07 C 206.80 95.71 207.13 93.81 208.94 93.58 C 211.35 92.79 212.99 94.97 213.60 96.99 C 211.12 97.09 208.65 97.12 206.17 97.07 Z" />
<path fill="#222222" opacity="1.00" d=" M 232.16 94.36 C 233.76 92.96 235.73 94.07 237.49 94.44 C 238.25 96.97 238.40 100.83 234.97 101.29 C 231.17 102.00 229.44 96.50 232.16 94.36 Z" />
<path fill="#222222" opacity="1.00" d=" M 244.82 100.18 C 243.25 98.38 243.51 94.75 246.02 93.90 C 247.47 92.94 248.83 94.27 249.95 95.06 C 250.62 96.18 251.43 97.46 250.85 98.82 C 250.24 101.34 246.42 102.23 244.82 100.18 Z" />
<path fill="#222222" opacity="1.00" d=" M 324.22 94.11 C 328.69 91.40 332.13 98.66 327.85 100.94 C 323.59 103.17 320.56 96.45 324.22 94.11 Z" />
<path fill="#222222" opacity="1.00" d=" M 348.16 93.99 C 351.24 92.20 354.55 95.81 353.25 98.86 C 352.60 101.63 348.43 102.18 346.96 99.83 C 345.91 97.98 346.10 95.05 348.16 93.99 Z" />
</g>
<g id="#ebebebff">
<path fill="#ebebeb" opacity="1.00" d=" M 166.42 39.54 C 169.11 38.13 173.47 39.51 173.46 42.97 C 173.64 46.79 168.39 48.39 165.74 46.17 C 163.36 44.64 163.86 40.61 166.42 39.54 Z" />
<path fill="#ebebeb" opacity="1.00" d=" M 60.00 43.75 C 63.20 43.75 66.40 43.75 69.59 43.75 C 72.51 51.16 75.30 58.64 78.37 65.99 C 81.18 58.57 84.01 51.16 86.85 43.75 C 90.07 43.75 93.28 43.75 96.50 43.75 C 96.51 54.42 96.50 65.08 96.50 75.75 C 93.83 75.75 91.17 75.75 88.50 75.75 C 88.49 69.26 88.50 62.77 88.51 56.28 C 86.01 62.70 83.94 69.27 81.63 75.76 C 79.33 75.75 77.02 75.73 74.72 75.68 C 72.50 69.01 70.19 62.37 67.78 55.76 C 67.71 62.43 67.77 69.09 67.75 75.75 C 65.17 75.75 62.58 75.75 60.00 75.75 C 60.00 65.08 60.00 54.42 60.00 43.75 Z" />
<path fill="#ebebeb" opacity="1.00" d=" M 222.25 75.75 C 222.29 64.98 222.16 54.22 222.32 43.45 C 228.44 43.83 234.71 42.79 240.72 44.25 C 246.50 45.90 249.16 53.23 246.26 58.37 C 245.07 60.97 242.31 62.11 239.88 63.24 C 242.47 67.37 244.95 71.57 247.48 75.74 C 244.61 75.75 241.73 75.75 238.86 75.79 C 236.21 71.45 234.04 66.81 231.01 62.72 C 228.93 66.67 230.45 71.45 229.99 75.76 C 227.41 75.75 224.83 75.75 222.25 75.75 M 230.00 49.96 C 230.00 52.73 230.00 55.50 230.00 58.27 C 232.57 58.19 235.24 58.54 237.73 57.69 C 239.57 56.48 239.79 53.94 239.06 52.02 C 236.96 49.19 233.02 50.21 230.00 49.96 Z" />
<path fill="#ebebeb" opacity="1.00" d=" M 103.77 50.24 C 106.35 50.25 108.93 50.25 111.51 50.25 C 111.67 55.51 111.13 60.81 111.80 66.04 C 112.57 70.69 120.21 70.77 121.22 66.22 C 122.28 60.98 121.54 55.56 121.75 50.25 C 124.33 50.25 126.92 50.25 129.50 50.25 C 129.50 58.75 129.50 67.25 129.50 75.75 C 126.90 75.75 124.31 75.75 121.71 75.75 C 121.75 74.22 121.80 72.69 121.86 71.16 C 118.50 77.45 107.76 77.98 105.00 70.93 C 102.63 64.35 104.19 57.10 103.77 50.24 Z" />
<path fill="#ebebeb" opacity="1.00" d=" M 140.38 51.40 C 144.74 49.27 150.47 49.54 154.35 52.59 C 156.24 54.16 157.09 56.52 157.96 58.74 C 155.56 58.76 153.17 58.75 150.78 58.70 C 149.70 57.02 148.31 55.11 146.03 55.47 C 143.90 55.02 142.67 58.18 144.58 59.23 C 148.07 61.00 152.35 60.81 155.57 63.19 C 159.03 65.54 159.14 71.39 155.75 73.86 C 151.92 76.84 146.41 76.52 142.09 74.89 C 138.77 73.73 137.05 70.44 136.14 67.27 C 138.58 67.25 141.03 67.24 143.47 67.24 C 144.31 69.69 146.53 70.64 148.90 71.03 C 150.38 70.20 152.12 68.19 150.13 66.81 C 146.44 64.93 141.78 65.29 138.55 62.48 C 135.09 59.50 136.38 53.28 140.38 51.40 Z" />
<path fill="#ebebeb" opacity="1.00" d=" M 165.01 50.24 C 167.59 50.25 170.17 50.25 172.75 50.25 C 172.75 58.75 172.75 67.25 172.75 75.75 C 170.17 75.75 167.59 75.75 165.01 75.76 C 164.99 67.25 165.00 58.75 165.01 50.24 Z" />
<path fill="#ebebeb" opacity="1.00" d=" M 185.58 51.49 C 190.74 48.88 197.83 49.73 201.65 54.27 C 203.18 55.93 203.73 58.19 204.53 60.24 C 201.83 60.26 199.13 60.26 196.44 60.21 C 195.39 56.78 190.65 55.36 188.37 58.40 C 186.16 61.75 186.45 68.16 191.02 69.33 C 193.55 69.92 195.35 68.07 196.40 66.02 C 199.11 65.99 201.83 65.99 204.54 66.01 C 203.61 68.43 202.77 71.02 200.78 72.82 C 196.93 76.42 190.82 76.89 186.09 74.89 C 177.02 70.95 176.71 55.81 185.58 51.49 Z" />
<path fill="#ebebeb" opacity="1.00" d=" M 261.43 50.58 C 265.47 49.50 270.08 49.93 273.59 52.34 C 280.75 57.21 280.54 69.56 273.12 74.11 C 267.42 77.48 258.97 76.63 254.86 71.13 C 249.82 64.33 252.68 52.61 261.43 50.58 M 263.33 57.33 C 258.74 59.71 259.46 68.68 265.02 69.23 C 269.02 69.88 271.56 65.45 270.75 61.94 C 270.79 58.30 266.61 55.51 263.33 57.33 Z" />
<path fill="#ebebeb" opacity="1.00" d=" M 292.51 50.70 C 297.03 49.36 302.34 49.93 306.03 53.02 C 312.38 58.38 311.72 70.15 304.33 74.30 C 298.75 77.37 290.69 76.61 286.63 71.38 C 281.40 64.80 283.93 53.03 292.51 50.70 M 295.19 57.16 C 291.40 58.91 291.03 64.51 293.32 67.59 C 295.94 70.75 301.73 69.19 302.17 65.02 C 303.68 60.79 299.94 55.13 295.19 57.16 Z" />
<path fill="#ebebeb" opacity="1.00" d=" M 324.40 54.46 C 328.11 48.40 337.83 48.70 341.15 54.99 C 343.43 51.88 347.06 49.48 351.08 50.08 C 355.32 50.28 359.06 53.63 359.65 57.85 C 360.41 63.78 359.82 69.80 359.99 75.76 C 357.41 75.75 354.83 75.75 352.25 75.75 C 352.07 70.51 352.64 65.23 351.92 60.03 C 350.85 55.54 343.29 55.90 342.60 60.45 C 341.84 65.51 342.43 70.66 342.23 75.76 C 339.65 75.75 337.07 75.75 334.49 75.74 C 334.30 70.52 334.93 65.22 334.17 60.04 C 333.23 55.65 325.91 55.82 324.99 60.15 C 324.00 65.28 324.70 70.55 324.51 75.75 C 321.92 75.75 319.34 75.75 316.76 75.76 C 316.75 67.25 316.75 58.75 316.75 50.25 C 319.34 50.25 321.94 50.25 324.54 50.26 C 324.50 51.31 324.44 53.41 324.40 54.46 Z" />
<path fill="#ebebeb" opacity="1.00" d=" M 238.02 94.52 C 238.09 92.55 237.56 90.28 239.03 88.66 C 239.10 93.34 239.96 98.26 238.63 102.81 C 238.38 102.21 237.87 101.01 237.61 100.42 C 236.57 102.48 233.99 102.76 232.06 101.95 C 228.47 100.15 228.78 93.72 232.82 92.66 C 234.81 91.86 236.65 93.22 238.02 94.52 M 232.16 94.36 C 229.44 96.50 231.17 102.00 234.97 101.29 C 238.40 100.83 238.25 96.97 237.49 94.44 C 235.73 94.07 233.76 92.96 232.16 94.36 Z" />
<path fill="#ebebeb" opacity="1.00" d=" M 260.14 90.47 C 263.11 89.50 266.69 89.17 269.57 90.55 C 268.55 90.62 266.52 90.75 265.50 90.82 C 264.92 94.72 266.80 99.43 264.42 102.81 C 264.12 98.83 264.28 94.84 264.25 90.85 C 263.22 90.75 261.17 90.56 260.14 90.47 Z" />
<path fill="#ebebeb" opacity="1.00" d=" M 359.53 99.34 C 358.04 96.25 357.70 91.88 359.44 88.86 C 359.88 92.33 359.87 95.86 359.53 99.34 Z" />
<path fill="#ebebeb" opacity="1.00" d=" M 179.17 102.67 C 180.65 98.34 182.16 94.02 184.00 89.84 C 184.30 89.95 184.89 90.18 185.19 90.29 C 186.89 94.32 188.42 98.44 189.78 102.60 C 188.27 102.08 187.84 100.53 187.19 99.26 C 185.40 99.25 183.60 99.25 181.81 99.27 C 181.15 100.56 180.62 102.04 179.17 102.67 M 182.02 98.25 C 183.25 98.25 185.72 98.26 186.96 98.26 C 186.15 96.04 185.36 93.83 184.53 91.62 C 183.63 93.81 182.82 96.03 182.02 98.25 Z" />
<path fill="#ebebeb" opacity="1.00" d=" M 289.50 89.77 C 291.95 89.77 294.41 89.77 296.85 90.05 C 294.94 90.99 292.80 90.74 290.75 90.81 C 290.75 92.37 290.75 93.94 290.75 95.51 C 292.42 95.50 294.09 95.49 295.76 95.49 C 295.76 95.75 295.74 96.26 295.73 96.52 C 294.07 96.52 292.41 96.51 290.76 96.49 C 290.75 98.06 290.75 99.63 290.75 101.21 C 292.77 101.23 294.79 101.27 296.80 101.48 C 294.56 102.73 291.93 102.14 289.50 102.26 C 289.49 98.10 289.49 93.94 289.50 89.77 Z" />
<path fill="#ebebeb" opacity="1.00" d=" M 174.40 92.45 C 176.01 91.87 176.57 92.40 176.08 94.03 C 174.48 94.62 173.92 94.09 174.40 92.45 Z" />
<path fill="#ebebeb" opacity="1.00" d=" M 195.53 92.61 C 197.41 91.99 199.08 93.24 200.43 94.39 C 200.60 93.71 200.94 92.34 201.10 91.66 C 202.25 95.59 201.75 99.77 201.63 103.81 C 200.80 108.35 193.15 107.94 192.70 103.34 C 194.52 104.46 196.37 106.84 198.74 105.63 C 200.71 104.95 200.37 102.46 200.78 100.87 C 198.97 101.44 197.12 102.98 195.14 102.17 C 190.99 100.85 191.17 93.50 195.53 92.61 M 195.20 93.93 C 191.70 96.02 193.73 102.55 197.99 101.14 C 202.92 99.83 200.05 91.44 195.20 93.93 Z" />
<path fill="#ebebeb" opacity="1.00" d=" M 208.05 102.08 C 203.66 100.62 204.41 92.86 209.16 92.50 C 212.29 91.94 214.42 94.73 214.86 97.54 C 211.95 97.84 209.03 97.90 206.12 97.87 C 206.87 99.04 207.13 101.24 208.94 101.21 C 211.23 101.82 212.75 99.64 214.56 98.68 C 213.92 101.56 210.73 103.10 208.05 102.08 M 206.17 97.07 C 208.65 97.12 211.12 97.09 213.60 96.99 C 212.99 94.97 211.35 92.79 208.94 93.58 C 207.13 93.81 206.80 95.71 206.17 97.07 Z" />
<path fill="#ebebeb" opacity="1.00" d=" M 217.91 91.87 C 218.27 92.38 218.99 93.40 219.36 93.91 C 221.15 91.82 225.15 91.97 226.04 94.83 C 226.42 97.48 226.67 100.36 225.52 102.86 C 225.21 100.28 225.36 97.66 224.84 95.11 C 223.87 93.10 221.31 93.18 219.67 94.25 C 218.61 96.99 219.14 100.01 218.76 102.87 C 216.56 99.75 218.15 95.46 217.91 91.87 Z" />
<path fill="#ebebeb" opacity="1.00" d=" M 245.76 92.69 C 247.27 92.15 249.11 92.55 250.17 93.79 C 251.02 93.81 251.66 93.13 252.08 91.74 C 252.31 95.43 252.35 99.13 252.09 102.83 C 251.69 102.24 250.90 101.06 250.50 100.47 C 249.48 102.52 247.00 102.73 245.08 101.98 C 241.53 100.18 241.71 93.77 245.76 92.69 M 244.82 100.18 C 246.42 102.23 250.24 101.34 250.85 98.82 C 251.43 97.46 250.62 96.18 249.95 95.06 C 248.83 94.27 247.47 92.94 246.02 93.90 C 243.51 94.75 243.25 98.38 244.82 100.18 Z" />
<path fill="#ebebeb" opacity="1.00" d=" M 271.61 93.08 C 271.84 92.79 272.32 92.22 272.55 91.93 C 273.36 95.00 271.19 99.90 274.94 101.38 C 275.82 101.21 277.58 100.88 278.46 100.72 C 278.73 97.71 278.71 94.69 279.02 91.69 C 280.90 95.04 279.68 99.08 279.99 102.74 C 279.63 102.35 278.92 101.56 278.56 101.17 C 277.79 101.56 276.24 102.33 275.47 102.71 C 270.67 102.14 271.22 96.64 271.61 93.08 Z" />
<path fill="#ebebeb" opacity="1.00" d=" M 301.48 93.54 C 303.27 92.05 306.47 92.06 307.54 94.40 C 308.41 97.12 307.93 100.07 307.83 102.87 C 305.92 100.74 307.12 97.68 306.61 95.13 C 305.95 94.61 304.64 93.56 303.98 93.04 C 299.52 94.32 301.02 99.33 300.57 102.77 C 298.32 100.14 299.98 96.15 299.49 92.97 C 299.98 93.11 300.98 93.40 301.48 93.54 Z" />
<path fill="#ebebeb" opacity="1.00" d=" M 311.44 94.99 C 312.09 90.95 318.64 92.14 318.42 96.10 C 316.93 94.63 315.27 92.58 312.93 93.79 C 311.34 96.95 315.41 96.63 317.21 97.77 C 319.36 98.61 318.51 102.01 316.40 102.24 C 313.99 102.97 311.83 101.18 310.97 99.04 C 313.06 100.12 315.71 103.29 317.54 100.00 C 316.74 96.91 311.41 98.56 311.44 94.99 Z" />
<path fill="#ebebeb" opacity="1.00" d=" M 324.52 92.68 C 326.45 91.91 328.46 93.04 329.63 94.60 C 329.79 93.93 330.13 92.60 330.29 91.94 C 331.75 95.31 330.71 99.16 331.00 102.72 C 330.64 102.35 329.92 101.59 329.56 101.22 C 327.81 101.65 325.92 102.99 324.10 102.07 C 320.22 100.54 320.41 93.76 324.52 92.68 M 324.22 94.11 C 320.56 96.45 323.59 103.17 327.85 100.94 C 332.13 98.66 328.69 91.40 324.22 94.11 Z" />
<path fill="#ebebeb" opacity="1.00" d=" M 333.78 91.79 C 336.29 94.10 336.94 97.62 338.47 100.55 C 339.58 97.66 340.50 94.66 342.06 91.96 C 342.21 92.20 342.50 92.67 342.64 92.90 C 341.07 97.48 339.29 102.03 337.22 106.41 C 336.91 106.63 336.28 107.07 335.97 107.29 C 336.42 105.54 337.04 103.84 337.70 102.16 C 336.33 98.73 334.55 95.43 333.78 91.79 Z" />
<path fill="#ebebeb" opacity="1.00" d=" M 348.60 92.65 C 352.20 91.44 355.75 95.28 354.53 98.82 C 353.95 102.89 347.66 103.66 345.77 100.20 C 344.17 97.55 345.36 93.32 348.60 92.65 M 348.16 93.99 C 346.10 95.05 345.91 97.98 346.96 99.83 C 348.43 102.18 352.60 101.63 353.25 98.86 C 354.55 95.81 351.24 92.20 348.16 93.99 Z" />
<path fill="#ebebeb" opacity="1.00" d=" M 174.92 105.85 C 174.79 102.43 173.91 98.63 175.59 95.47 C 175.56 98.89 176.55 102.67 174.92 105.85 Z" />
<path fill="#ebebeb" opacity="1.00" d=" M 357.60 101.00 C 358.20 99.50 361.05 100.17 360.50 101.89 C 359.94 103.51 357.01 102.71 357.60 101.00 Z" />
</g>
<g id="#ecad45ff">
<path fill="#ecad45" opacity="1.00" d=" M 60.01 97.09 C 87.67 97.08 115.34 97.12 143.00 97.07 C 144.48 97.11 145.95 97.33 147.39 97.71 C 146.09 99.45 143.86 98.94 142.03 99.06 C 114.68 98.98 87.34 99.06 59.99 99.03 C 59.99 98.54 60.01 97.57 60.01 97.09 Z" />
</g>
</svg>
